<svg xmlns="http://www.w3.org/2000/svg" width="345" height="102" viewBox="0 0 345 102"><defs><linearGradient id="3xoya" x1="38.47" x2="63" y1="102" y2=".01" gradientUnits="userSpaceOnUse"><stop offset="0" stop-color="#0072ee"/><stop offset="1" stop-color="#00cdff"/></linearGradient></defs><g><g><path fill="#002847" d="M121.72 37.824v27.177h-4.146V37.824zm5.69 27.177l5.691-29.215 9.43 21.107 9.512-21.107 5.122 29.215h-4.228l-2.764-16.38-7.885 17.643-7.805-17.683L131.638 65zm41.422-27.177c1.666 0 3.983.163 5.934 1.467 2.277 1.507 3.374 4.115 3.374 6.6 0 1.59-.406 4.034-2.642 5.95-2.154 1.833-4.634 2.118-6.626 2.118h-1.87v11.042h-4.145V37.824zm-1.83 12.305h1.87c3.577 0 5.285-1.752 5.285-4.278 0-1.508-.61-4.197-5.325-4.197h-1.83zm30.08 8.313h-11.584l-2.967 6.56h-4.471l13.494-28.767L204.4 65h-4.471zm-1.666-3.912l-4.024-9.209-4.187 9.209zm31.868-10.35c-3.008-2.73-5.812-3.015-7.357-3.015-5.894 0-9.877 4.36-9.877 10.35 0 5.745 4.146 10.186 9.918 10.186 3.252 0 5.772-1.67 7.316-3.138v4.93c-2.723 1.63-5.568 2.038-7.438 2.038-4.918 0-8.008-2.241-9.593-3.749-3.17-2.974-4.35-6.437-4.35-10.268 0-5.011 2.074-8.474 4.35-10.634 2.805-2.649 6.057-3.545 9.796-3.545 2.48 0 4.878.448 7.235 1.956zm12.643-2.444V65h-4.146V41.736h-6.22v-3.912h16.585v3.912zm23.088 9.126h11.178v.204c0 4.645-1.382 8.434-4.024 11.002-2.804 2.73-6.137 3.463-9.227 3.463-3.942 0-6.747-1.14-9.226-3.708-2.643-2.73-4.025-6.356-4.025-10.268 0-4.237 1.708-7.904 3.943-10.146 2.317-2.363 6.016-4.074 10.203-4.074 2.439 0 4.959.53 7.072 1.711 2.236 1.264 3.618 2.852 4.39 4.075l-3.292 2.322c-.813-1.14-2.033-2.363-3.333-3.096-1.504-.897-3.13-1.182-4.797-1.182-3.536 0-5.812 1.467-7.154 2.811-1.788 1.793-2.886 4.686-2.886 7.62 0 2.73 1.017 5.46 2.805 7.375 1.87 1.996 4.187 2.73 6.788 2.73 2.358 0 4.309-.693 6.057-2.404 1.504-1.467 2.113-3.056 2.276-4.604h-6.748zm31.34-9.126h-10.812v6.885h10.487v3.912h-10.487v8.557h10.813v3.911h-14.959V37.824h14.959zM299.723 65v-29.01l19.673 20.657V37.824h4.146v28.848l-19.673-20.658v18.987zm45.282-23.265h-10.812v6.885h10.487v3.912h-10.487v8.557h10.812v3.911h-14.958V37.824h14.958z"/></g><g><path fill="#002847" d="M31.877 33.284v35.193h-3.895V33.284zm27.16 17.517H73.67v.844c0 3.905-1.158 8.126-3.369 11.133-1.053 1.425-5 6.332-13.053 6.332-10.422 0-18.212-7.967-18.212-18.203s7.842-18.203 18.317-18.203c3.368 0 7.316.844 10.737 3.482 1.58 1.213 3.053 2.797 4.053 4.168l-2.895 2.638c-1-1.425-2.158-2.69-3.316-3.64-1.684-1.372-4.316-2.955-8.527-2.955-8.474 0-14.369 6.384-14.369 14.562 0 9.603 7.632 14.457 14.264 14.457 4.685 0 8.738-2.374 10.738-5.91.631-1.106 1.316-2.795 1.42-5.011h-10.42z"/></g><g><path fill="#081c27" d="M92.278 30.541c-2.163.612-3.94 1.113-5.717 1.618-.372.106-.772.376-1.104.306-.511-.109-.975-.446-1.46-.685.288-.384.502-.987.875-1.111 1.881-.63 3.797-1.16 5.713-1.675 1.834-.494 1.918-.6 1.397-2.813-1.834.505-3.667 1.004-5.495 1.52-.691.193-1.362.543-2.06.599-.479.039-.99-.306-1.486-.48.277-.44.464-1.146.847-1.279 1.932-.67 3.916-1.186 5.878-1.77.512-.152 1.011-.348 1.57-.542-.416-1.44-.894-2.196-2.493-1.53-1.52.632-3.163.997-4.78 1.341-.518.11-1.128-.223-1.696-.354.398-.499.7-1.256 1.213-1.447 1.54-.577 3.164-.935 5.333-1.54-1.352-.762-2.29-1.328-3.262-1.828-.983-.504-2.063-.846-2.977-1.448-.533-.35-.966-1.02-1.188-1.639-.28-.78.177-1.226.981-.892 3.647 1.515 7.23 3.177 9.816 6.314 2.203 2.67 3.205 5.847 2.288 9.185-1.286 4.68-2.959 9.257-4.525 13.858-1.31 3.853-2.378 7.734-1.917 11.863.079.71.394 1.407.383 2.105-.01.514-.374 1.02-.58 1.53-.366-.327-.9-.582-1.072-.99-2.06-4.894-1.6-9.76.326-14.567 1.399-3.49 2.88-6.948 4.28-10.437.344-.859.514-1.787.912-3.212zM9.408 71.336c2.334-.676 4.238-1.205 6.127-1.784.83-.255 1.748-.592 2.048.506.08.296-.82 1.084-1.397 1.294-1.707.621-3.479 1.064-5.224 1.581-1.81.537-1.837.594-1.264 2.765 2.31-.65 4.62-1.3 6.93-1.955.265-.076.554-.322.77-.263.467.13.894.406 1.337.623-.256.388-.433 1.007-.78 1.126-1.985.68-4.012 1.238-6.02 1.849-.468.142-.922.329-1.365.49.303 1.772.714 2.065 2.274 1.623 1.704-.482 3.385-1.053 5.108-1.449.425-.098.973.34 1.464.53-.333.43-.582 1.09-1.013 1.247-1.64.598-3.34 1.034-5.165 1.986 1.738.856 3.53 1.622 5.191 2.61.768.457 1.294 1.335 1.866 2.072.033.043-.536.801-.788.78-3.901-.32-10.672-5.97-11.957-9.727-1.111-3.25-.546-6.383.465-9.46 1.483-4.515 3.234-8.942 4.694-13.464 1.12-3.463 1.465-7.028.552-10.648-.11-.435.346-1.013.54-1.523.371.313.918.553 1.089.953 2.08 4.89 1.601 9.758-.314 14.564-1.413 3.544-2.924 7.048-4.342 10.59-.339.848-.482 1.774-.825 3.084zm61.76 21.05c-.67-2.349-1.18-4.307-1.803-6.23-.27-.835-.43-1.654.522-1.896.305-.077 1.085.81 1.28 1.38.643 1.879 1.168 3.802 1.639 5.732.29 1.188 1.1 1.396 1.988 1.072.295-.108.511-1.09.387-1.575-.53-2.087-1.259-4.123-1.772-6.212-.11-.455.371-1.055.58-1.588.403.34 1.027.604 1.173 1.033.682 1.99 1.23 4.028 1.833 6.046.121.407.277.804.44 1.267 1.431-.354 2.157-.877 1.57-2.447-.6-1.605-1.031-3.28-1.41-4.954-.103-.458.25-1.019.393-1.533.482.334 1.232.569 1.398 1.02.59 1.595.98 3.264 1.55 5.272.512-.7.914-1.12 1.167-1.618.703-1.379 1.266-2.836 2.044-4.169.35-.597 1.013-1.135 1.656-1.404.8-.333 1.433.069.924.995-1.564 2.852-2.889 5.921-4.908 8.416-3.612 4.464-8.558 4.679-13.646 3.027-4.666-1.514-9.232-3.336-13.895-4.858-3.46-1.13-7.024-1.464-10.643-.606-.458.108-1.034-.28-1.555-.44.303-.434.508-1.078.923-1.272 3.717-1.736 7.578-1.531 11.334-.31 4.78 1.556 9.466 3.398 14.199 5.1.713.256 1.46.42 2.633.751zm-13.07 6.728c2.142-1.443 3.912-2.632 5.677-3.827 1.268-.86 1.495-.834 3.03.589-1.646 1.166-3.129 2.545-4.872 3.37-2.42 1.148-4.976 2.273-7.587 2.676-2.384.369-4.89-.576-6.748-2.233a77.643 77.643 0 0 1-6.854-6.97c-3.27-3.757-6.082-7.96-10.398-10.668-1.346-.843-2.885-1.372-4.293-2.127-.508-.272-.888-.784-1.326-1.187.562-.161 1.152-.526 1.682-.452 4.939.679 8.738 3.343 11.79 7.135 2.328 2.893 4.501 5.91 6.775 8.849.729.943 1.556 1.809 2.338 2.71l.49-.312c.555-2.123 1.064-4.26 1.703-6.358.128-.42.754-.688 1.15-1.026.208.516.67 1.08.582 1.54-.367 1.904-.81 3.805-1.398 5.651-.487 1.528-.106 2.348 1.831 2.626l.88-3.553c.334-1.345.607-2.71 1.038-4.023.148-.452.691-.775 1.054-1.157.26.474.807 1 .732 1.415-.343 1.903-.869 3.772-1.31 5.658-.143.616-.227 1.245-.354 1.957 1.47.28 2.313.061 2.58-1.434a41.644 41.644 0 0 1 1.231-4.988c.128-.412.784-.66 1.197-.982.22.494.686 1.03.611 1.475-.23 1.362-.677 2.685-1.018 4.03-.089.348-.098.715-.212 1.616zM54.01 4.63c-.695 2.64-1.186 4.725-1.82 6.764-.15.476-.835 1.17-1.188 1.123-.978-.13-.802-.89-.582-1.673.525-1.868.83-3.803 1.436-5.64.56-1.695-.207-2.195-1.84-2.44-.634 2.47-1.227 4.927-1.92 7.354-.15.525-.661.946-1.006 1.414-.27-.625-.847-1.3-.753-1.864.299-1.794.863-3.543 1.292-5.318.15-.619.203-1.26.322-2.032-1.465-.18-2.296.121-2.576 1.541a50.572 50.572 0 0 1-1.23 4.983c-.134.44-.737.736-1.125 1.098-.24-.538-.76-1.126-.673-1.605.3-1.665.811-3.292 1.372-5.431-1.084.573-1.8.887-2.445 1.31a55.807 55.807 0 0 0-3.4 2.377c-1.11.849-1.985.563-3.032-.536 4.337-3.29 8.529-6.72 14.302-5.935 1.967.268 4.156 1.26 5.59 2.617 3.205 3.026 6.044 6.45 8.945 9.788 2.99 3.441 5.941 6.899 10.278 8.734.61.258 1.283.398 1.838.74.445.273.755.768 1.124 1.165-.509.163-1.046.524-1.522.458-4.155-.588-7.71-2.47-10.477-5.582-2.238-2.517-4.148-5.326-6.26-7.96-1.398-1.742-2.896-3.402-4.65-5.45zm-27.897 5.08c.711 2.49 1.364 4.878 2.086 7.246.228.746.512 1.551-.484 1.708-.387.062-1.15-.65-1.327-1.156-.663-1.88-1.104-3.84-1.742-5.731-.16-.473-.882-1.201-1.112-1.123-.777.265-1.4.762-.99 1.884.586 1.613 1 3.292 1.448 4.953.192.708.69 1.695-.472 1.864-.398.057-1.155-.833-1.381-1.43-.56-1.473-.907-3.028-1.34-4.55l-.472-.146c-.88 1.803-1.802 3.586-2.622 5.416-.574 1.283-1.37 1.926-2.897 1.498.028-.332-.023-.627.084-.844 1.003-2.037 1.869-4.167 3.087-6.068 3.602-5.62 7.87-7.388 14.358-5.65 3.994 1.068 7.848 2.672 11.744 4.091 3.826 1.392 7.71 2.376 11.824 1.975.76-.075 1.505-.396 2.261-.41.471-.01.949.34 1.424.528-.268.398-.446.985-.819 1.165-3.712 1.798-7.59 1.588-11.357.41-4.266-1.334-8.418-3.032-12.628-4.549-1.28-.461-2.587-.844-4.3-1.398L32.1 15.08c.091.32.322.666.26.95-.121.553-.403 1.07-.618 1.603-.404-.34-1.025-.604-1.172-1.032-.629-1.829-1.142-3.7-1.65-5.569-.51-1.875-.544-1.915-2.807-1.323zm10.498 80.257c1.046.599 1.167 1.286.27 2.19-1.161 1.169-2.284 2.375-3.75 3.907 1.165.064 1.897.172 2.62.127a70.853 70.853 0 0 0 4.137-.4c1.347-.162 2.017.512 2.372 1.704-9.133 3.879-18.484-1.202-20.26-10.877-.97-5.274-1.957-10.548-3.121-15.78-.622-2.795-2.152-5.199-4.09-7.334-.327-.36-.31-1.035-.45-1.564.569.093 1.27.005 1.686.308 3.636 2.643 5.225 6.544 6.1 10.732.997 4.775 1.72 9.607 2.576 14.413.092.519.277 1.02.446 1.63 1.66-1.592 3.173-3.027 4.664-4.485.518-.507 1.068-1.274 1.707-.408.23.313-.075 1.296-.434 1.72a44.839 44.839 0 0 1-3.78 3.98c-1.21 1.117-1.367 2.067-.277 2.86 2.05-1.825 4.042-3.631 6.081-5.383.3-.258.977-.477 1.204-.318.297.208.423.81.42 1.241-.002.248-.399.5-.628.739-1.304 1.363-2.614 2.72-3.915 4.086-.373.391-.722.806-1.095 1.225 1.127 1.205 2.027 1.226 3.104.038 1.366-1.509 2.895-2.87 4.413-4.351zM4.845 47.788c2.483.665 4.607 1.186 6.692 1.832.423.13.7.731 1.045 1.116-.524.215-1.1.688-1.564.597-1.898-.375-3.772-.888-5.636-1.417-1.441-.409-2.389-.122-2.596 1.804l5.817 1.508c.537.139 1.124.18 1.597.436.488.265.865.736 1.291 1.117-.592.245-1.234.773-1.769.681-1.789-.31-3.537-.858-5.307-1.285-.618-.148-1.256-.212-1.938-.323-.445 1.54.107 2.255 1.418 2.556 1.667.381 3.344.739 4.975 1.24.419.128.685.757 1.02 1.155-.488.23-1.027.722-1.458.64-1.712-.32-3.392-.82-5.084-1.254l-.334.392c1.182 1.761 2.312 3.56 3.565 5.27.815 1.113.65 1.991-.489 3.185-1.196-1.685-2.416-3.217-3.436-4.872-4.16-6.752-3.44-12.27 2.295-17.76 1.36-1.3 2.845-2.47 4.266-3.706 2.59-2.254 5.23-4.453 7.745-6.787 2.309-2.143 3.884-4.8 4.948-7.781.19-.53.873-.88 1.33-1.314.154.581.501 1.187.431 1.74-.453 3.567-2.196 6.558-4.75 8.937-3.402 3.167-7.052 6.065-10.578 9.099-1.112.956-2.169 1.977-3.496 3.194zm89.176 24.92c1.28-1.14 1.246-1.984.15-3.032-1.479-1.41-2.801-2.985-4.305-4.614.463-.964 1.165-1.077 2.13-.098 1.14 1.16 2.33 2.271 3.5 3.403l.54-.237c-.134-2.064-.216-4.133-.419-6.19-.132-1.348.441-2.045 1.663-2.405 2.327 8.963.623 17.549-9.425 19.883-3.762.873-7.605 1.398-11.408 2.097-4.767.877-9.39 2.084-13.076 5.552-.349.328-1.031.3-1.559.438.125-.56.081-1.253.401-1.658 3.608-4.57 8.605-6.377 14.167-7.078 3.619-.456 7.226-1.01 10.834-1.549.523-.078 1.022-.314 1.962-.615l-4.145-3.937c-.321-.305-.776-.556-.93-.931-.185-.455-.117-1.015-.158-1.53.476.055 1.106-.066 1.402.194 1.495 1.319 2.897 2.742 4.342 4.119 1.487 1.415 1.493 1.41 3.033-.066-1.752-1.81-3.51-3.62-5.257-5.44-.456-.474-1.381-.85-.602-1.72.804-.896 1.342-.141 1.904.396 1.742 1.673 3.493 3.336 5.256 5.017zm2.852-18.637c-2.491-.644-4.555-1.152-6.601-1.727-.434-.122-.982-.398-1.157-.758-.362-.747.442-1.43 1.363-1.201 1.985.492 3.964 1.01 5.948 1.51 1.822.46 1.823.456 2.462-1.784-2.49-.634-4.988-1.225-7.454-1.932-.487-.14-.846-.727-1.265-1.108.535-.245 1.121-.773 1.595-.686 1.898.347 3.76.894 5.639 1.346.565.136 1.147.203 1.815.318.274-1.535.016-2.364-1.579-2.595-1.631-.236-3.24-.699-4.816-1.196-.434-.137-.719-.75-1.072-1.143.531-.246 1.113-.772 1.585-.687 1.665.297 3.292.804 5.267.907-.519-.851-1.014-1.718-1.562-2.549-.641-.971-1.293-1.94-2.006-2.858-.865-1.115-.578-1.988.36-2.834 7.424 5.7 8.168 15.674 1.552 22.062-2.863 2.765-6.056 5.186-9.093 7.77-3.63 3.089-6.815 6.496-8.215 11.238-.112.38-.757.602-1.155.896-.196-.461-.6-.942-.556-1.38.331-3.266 1.704-6.17 4.006-8.4 3.375-3.268 7.036-6.24 10.571-9.342 1.355-1.189 2.7-2.39 4.368-3.867zm-20.32-41.067c-1.638 1.514-3.18 2.933-4.714 4.359-.521.484-1.081 1.255-1.716.332-.214-.312.035-1.204.36-1.582a57.077 57.077 0 0 1 4.003-4.225c1.202-1.136 1.084-2.024-.255-2.975-1.767 1.751-3.516 3.502-5.288 5.229-.505.492-.964 1.501-1.846.58-.808-.844.031-1.374.552-1.92 1.634-1.716 3.27-3.43 4.955-5.197-1.14-1.232-2.059-1.302-3.1-.076a36.415 36.415 0 0 1-3.234 3.35c-.423.385-1.386.817-1.65.62-1.004-.752-.197-1.413.384-2.014l3.208-3.31-.145-.5c-1.889.09-3.777.192-5.667.264-.603.023-1.284.136-1.794-.094-.524-.237-.884-.841-1.544-1.52.875-.23 1.378-.43 1.898-.488 3.585-.394 7.19-.707 10.672.537 5.128 1.831 7.011 6.146 8.01 11 .971 4.714 1.737 9.47 2.703 14.184.667 3.26 2.168 6.134 4.394 8.64.374.42.35 1.196.511 1.808-.576-.144-1.271-.128-1.71-.456-3.585-2.688-5.17-6.58-6.029-10.773-.991-4.835-1.744-9.718-2.612-14.578-.075-.42-.237-.825-.345-1.195zM12.84 25.178c1.577 1.653 3.014 3.174 4.47 4.677.509.525 1.236 1.082.387 1.732-.292.223-1.226-.031-1.613-.364-1.426-1.227-2.808-2.52-4.087-3.9-1.136-1.226-2.087-1.29-3.03.011 1.752 1.84 3.525 3.638 5.208 5.518.375.419.77 1.369.567 1.655-.673.95-1.295.202-1.863-.35-1.738-1.683-3.488-3.355-5.278-5.073-1.147 1.155-1.343 2.057-.062 3.125 1.315 1.097 2.52 2.335 3.693 3.586.276.294.232.89.335 1.345-.532.016-1.302.265-1.554.007-1.231-1.259-2.323-2.653-3.464-3.999l-.744.448c-.043.553-.148 1.11-.118 1.659.084 1.55.17 3.105.356 4.646.164 1.35-.444 2.05-1.787 2.482-.935-3.265-1.027-6.518-.5-9.734 1.208-7.364 6.119-9.401 11.42-10.557 4.742-1.033 9.552-1.75 14.303-2.744 3.244-.679 6.123-2.18 8.634-4.4.43-.38 1.214-.356 1.834-.519-.182.568-.22 1.25-.567 1.683-3.313 4.108-7.783 6.052-12.885 6.765-3.888.543-7.779 1.071-11.662 1.65-.674.101-1.315.424-1.993.651z"/><path fill="url(#3xoya)" d="M92.278 30.541c-2.163.612-3.94 1.113-5.717 1.618-.372.106-.772.376-1.104.306-.511-.109-.975-.446-1.46-.685.288-.384.502-.987.875-1.111 1.881-.63 3.797-1.16 5.713-1.675 1.834-.494 1.918-.6 1.397-2.813-1.834.505-3.667 1.004-5.495 1.52-.691.193-1.362.543-2.06.599-.479.039-.99-.306-1.486-.48.277-.44.464-1.146.847-1.279 1.932-.67 3.916-1.186 5.878-1.77.512-.152 1.011-.348 1.57-.542-.416-1.44-.894-2.196-2.493-1.53-1.52.632-3.163.997-4.78 1.341-.518.11-1.128-.223-1.696-.354.398-.499.7-1.256 1.213-1.447 1.54-.577 3.164-.935 5.333-1.54-1.352-.762-2.29-1.328-3.262-1.828-.983-.504-2.063-.846-2.977-1.448-.533-.35-.966-1.02-1.188-1.639-.28-.78.177-1.226.981-.892 3.647 1.515 7.23 3.177 9.816 6.314 2.203 2.67 3.205 5.847 2.288 9.185-1.286 4.68-2.959 9.257-4.525 13.858-1.31 3.853-2.378 7.734-1.917 11.863.079.71.394 1.407.383 2.105-.01.514-.374 1.02-.58 1.53-.366-.327-.9-.582-1.072-.99-2.06-4.894-1.6-9.76.326-14.567 1.399-3.49 2.88-6.948 4.28-10.437.344-.859.514-1.787.912-3.212zM9.408 71.336c2.334-.676 4.238-1.205 6.127-1.784.83-.255 1.748-.592 2.048.506.08.296-.82 1.084-1.397 1.294-1.707.621-3.479 1.064-5.224 1.581-1.81.537-1.837.594-1.264 2.765 2.31-.65 4.62-1.3 6.93-1.955.265-.076.554-.322.77-.263.467.13.894.406 1.337.623-.256.388-.433 1.007-.78 1.126-1.985.68-4.012 1.238-6.02 1.849-.468.142-.922.329-1.365.49.303 1.772.714 2.065 2.274 1.623 1.704-.482 3.385-1.053 5.108-1.449.425-.098.973.34 1.464.53-.333.43-.582 1.09-1.013 1.247-1.64.598-3.34 1.034-5.165 1.986 1.738.856 3.53 1.622 5.191 2.61.768.457 1.294 1.335 1.866 2.072.033.043-.536.801-.788.78-3.901-.32-10.672-5.97-11.957-9.727-1.111-3.25-.546-6.383.465-9.46 1.483-4.515 3.234-8.942 4.694-13.464 1.12-3.463 1.465-7.028.552-10.648-.11-.435.346-1.013.54-1.523.371.313.918.553 1.089.953 2.08 4.89 1.601 9.758-.314 14.564-1.413 3.544-2.924 7.048-4.342 10.59-.339.848-.482 1.774-.825 3.084zm61.76 21.05c-.67-2.349-1.18-4.307-1.803-6.23-.27-.835-.43-1.654.522-1.896.305-.077 1.085.81 1.28 1.38.643 1.879 1.168 3.802 1.639 5.732.29 1.188 1.1 1.396 1.988 1.072.295-.108.511-1.09.387-1.575-.53-2.087-1.259-4.123-1.772-6.212-.11-.455.371-1.055.58-1.588.403.34 1.027.604 1.173 1.033.682 1.99 1.23 4.028 1.833 6.046.121.407.277.804.44 1.267 1.431-.354 2.157-.877 1.57-2.447-.6-1.605-1.031-3.28-1.41-4.954-.103-.458.25-1.019.393-1.533.482.334 1.232.569 1.398 1.02.59 1.595.98 3.264 1.55 5.272.512-.7.914-1.12 1.167-1.618.703-1.379 1.266-2.836 2.044-4.169.35-.597 1.013-1.135 1.656-1.404.8-.333 1.433.069.924.995-1.564 2.852-2.889 5.921-4.908 8.416-3.612 4.464-8.558 4.679-13.646 3.027-4.666-1.514-9.232-3.336-13.895-4.858-3.46-1.13-7.024-1.464-10.643-.606-.458.108-1.034-.28-1.555-.44.303-.434.508-1.078.923-1.272 3.717-1.736 7.578-1.531 11.334-.31 4.78 1.556 9.466 3.398 14.199 5.1.713.256 1.46.42 2.633.751zm-13.07 6.728c2.142-1.443 3.912-2.632 5.677-3.827 1.268-.86 1.495-.834 3.03.589-1.646 1.166-3.129 2.545-4.872 3.37-2.42 1.148-4.976 2.273-7.587 2.676-2.384.369-4.89-.576-6.748-2.233a77.643 77.643 0 0 1-6.854-6.97c-3.27-3.757-6.082-7.96-10.398-10.668-1.346-.843-2.885-1.372-4.293-2.127-.508-.272-.888-.784-1.326-1.187.562-.161 1.152-.526 1.682-.452 4.939.679 8.738 3.343 11.79 7.135 2.328 2.893 4.501 5.91 6.775 8.849.729.943 1.556 1.809 2.338 2.71l.49-.312c.555-2.123 1.064-4.26 1.703-6.358.128-.42.754-.688 1.15-1.026.208.516.67 1.08.582 1.54-.367 1.904-.81 3.805-1.398 5.651-.487 1.528-.106 2.348 1.831 2.626l.88-3.553c.334-1.345.607-2.71 1.038-4.023.148-.452.691-.775 1.054-1.157.26.474.807 1 .732 1.415-.343 1.903-.869 3.772-1.31 5.658-.143.616-.227 1.245-.354 1.957 1.47.28 2.313.061 2.58-1.434a41.644 41.644 0 0 1 1.231-4.988c.128-.412.784-.66 1.197-.982.22.494.686 1.03.611 1.475-.23 1.362-.677 2.685-1.018 4.03-.089.348-.098.715-.212 1.616zM54.01 4.63c-.695 2.64-1.186 4.725-1.82 6.764-.15.476-.835 1.17-1.188 1.123-.978-.13-.802-.89-.582-1.673.525-1.868.83-3.803 1.436-5.64.56-1.695-.207-2.195-1.84-2.44-.634 2.47-1.227 4.927-1.92 7.354-.15.525-.661.946-1.006 1.414-.27-.625-.847-1.3-.753-1.864.299-1.794.863-3.543 1.292-5.318.15-.619.203-1.26.322-2.032-1.465-.18-2.296.121-2.576 1.541a50.572 50.572 0 0 1-1.23 4.983c-.134.44-.737.736-1.125 1.098-.24-.538-.76-1.126-.673-1.605.3-1.665.811-3.292 1.372-5.431-1.084.573-1.8.887-2.445 1.31a55.807 55.807 0 0 0-3.4 2.377c-1.11.849-1.985.563-3.032-.536 4.337-3.29 8.529-6.72 14.302-5.935 1.967.268 4.156 1.26 5.59 2.617 3.205 3.026 6.044 6.45 8.945 9.788 2.99 3.441 5.941 6.899 10.278 8.734.61.258 1.283.398 1.838.74.445.273.755.768 1.124 1.165-.509.163-1.046.524-1.522.458-4.155-.588-7.71-2.47-10.477-5.582-2.238-2.517-4.148-5.326-6.26-7.96-1.398-1.742-2.896-3.402-4.65-5.45zm-27.897 5.08c.711 2.49 1.364 4.878 2.086 7.246.228.746.512 1.551-.484 1.708-.387.062-1.15-.65-1.327-1.156-.663-1.88-1.104-3.84-1.742-5.731-.16-.473-.882-1.201-1.112-1.123-.777.265-1.4.762-.99 1.884.586 1.613 1 3.292 1.448 4.953.192.708.69 1.695-.472 1.864-.398.057-1.155-.833-1.381-1.43-.56-1.473-.907-3.028-1.34-4.55l-.472-.146c-.88 1.803-1.802 3.586-2.622 5.416-.574 1.283-1.37 1.926-2.897 1.498.028-.332-.023-.627.084-.844 1.003-2.037 1.869-4.167 3.087-6.068 3.602-5.62 7.87-7.388 14.358-5.65 3.994 1.068 7.848 2.672 11.744 4.091 3.826 1.392 7.71 2.376 11.824 1.975.76-.075 1.505-.396 2.261-.41.471-.01.949.34 1.424.528-.268.398-.446.985-.819 1.165-3.712 1.798-7.59 1.588-11.357.41-4.266-1.334-8.418-3.032-12.628-4.549-1.28-.461-2.587-.844-4.3-1.398L32.1 15.08c.091.32.322.666.26.95-.121.553-.403 1.07-.618 1.603-.404-.34-1.025-.604-1.172-1.032-.629-1.829-1.142-3.7-1.65-5.569-.51-1.875-.544-1.915-2.807-1.323zm10.498 80.257c1.046.599 1.167 1.286.27 2.19-1.161 1.169-2.284 2.375-3.75 3.907 1.165.064 1.897.172 2.62.127a70.853 70.853 0 0 0 4.137-.4c1.347-.162 2.017.512 2.372 1.704-9.133 3.879-18.484-1.202-20.26-10.877-.97-5.274-1.957-10.548-3.121-15.78-.622-2.795-2.152-5.199-4.09-7.334-.327-.36-.31-1.035-.45-1.564.569.093 1.27.005 1.686.308 3.636 2.643 5.225 6.544 6.1 10.732.997 4.775 1.72 9.607 2.576 14.413.092.519.277 1.02.446 1.63 1.66-1.592 3.173-3.027 4.664-4.485.518-.507 1.068-1.274 1.707-.408.23.313-.075 1.296-.434 1.72a44.839 44.839 0 0 1-3.78 3.98c-1.21 1.117-1.367 2.067-.277 2.86 2.05-1.825 4.042-3.631 6.081-5.383.3-.258.977-.477 1.204-.318.297.208.423.81.42 1.241-.002.248-.399.5-.628.739-1.304 1.363-2.614 2.72-3.915 4.086-.373.391-.722.806-1.095 1.225 1.127 1.205 2.027 1.226 3.104.038 1.366-1.509 2.895-2.87 4.413-4.351zM4.845 47.788c2.483.665 4.607 1.186 6.692 1.832.423.13.7.731 1.045 1.116-.524.215-1.1.688-1.564.597-1.898-.375-3.772-.888-5.636-1.417-1.441-.409-2.389-.122-2.596 1.804l5.817 1.508c.537.139 1.124.18 1.597.436.488.265.865.736 1.291 1.117-.592.245-1.234.773-1.769.681-1.789-.31-3.537-.858-5.307-1.285-.618-.148-1.256-.212-1.938-.323-.445 1.54.107 2.255 1.418 2.556 1.667.381 3.344.739 4.975 1.24.419.128.685.757 1.02 1.155-.488.23-1.027.722-1.458.64-1.712-.32-3.392-.82-5.084-1.254l-.334.392c1.182 1.761 2.312 3.56 3.565 5.27.815 1.113.65 1.991-.489 3.185-1.196-1.685-2.416-3.217-3.436-4.872-4.16-6.752-3.44-12.27 2.295-17.76 1.36-1.3 2.845-2.47 4.266-3.706 2.59-2.254 5.23-4.453 7.745-6.787 2.309-2.143 3.884-4.8 4.948-7.781.19-.53.873-.88 1.33-1.314.154.581.501 1.187.431 1.74-.453 3.567-2.196 6.558-4.75 8.937-3.402 3.167-7.052 6.065-10.578 9.099-1.112.956-2.169 1.977-3.496 3.194zm89.176 24.92c1.28-1.14 1.246-1.984.15-3.032-1.479-1.41-2.801-2.985-4.305-4.614.463-.964 1.165-1.077 2.13-.098 1.14 1.16 2.33 2.271 3.5 3.403l.54-.237c-.134-2.064-.216-4.133-.419-6.19-.132-1.348.441-2.045 1.663-2.405 2.327 8.963.623 17.549-9.425 19.883-3.762.873-7.605 1.398-11.408 2.097-4.767.877-9.39 2.084-13.076 5.552-.349.328-1.031.3-1.559.438.125-.56.081-1.253.401-1.658 3.608-4.57 8.605-6.377 14.167-7.078 3.619-.456 7.226-1.01 10.834-1.549.523-.078 1.022-.314 1.962-.615l-4.145-3.937c-.321-.305-.776-.556-.93-.931-.185-.455-.117-1.015-.158-1.53.476.055 1.106-.066 1.402.194 1.495 1.319 2.897 2.742 4.342 4.119 1.487 1.415 1.493 1.41 3.033-.066-1.752-1.81-3.51-3.62-5.257-5.44-.456-.474-1.381-.85-.602-1.72.804-.896 1.342-.141 1.904.396 1.742 1.673 3.493 3.336 5.256 5.017zm2.852-18.637c-2.491-.644-4.555-1.152-6.601-1.727-.434-.122-.982-.398-1.157-.758-.362-.747.442-1.43 1.363-1.201 1.985.492 3.964 1.01 5.948 1.51 1.822.46 1.823.456 2.462-1.784-2.49-.634-4.988-1.225-7.454-1.932-.487-.14-.846-.727-1.265-1.108.535-.245 1.121-.773 1.595-.686 1.898.347 3.76.894 5.639 1.346.565.136 1.147.203 1.815.318.274-1.535.016-2.364-1.579-2.595-1.631-.236-3.24-.699-4.816-1.196-.434-.137-.719-.75-1.072-1.143.531-.246 1.113-.772 1.585-.687 1.665.297 3.292.804 5.267.907-.519-.851-1.014-1.718-1.562-2.549-.641-.971-1.293-1.94-2.006-2.858-.865-1.115-.578-1.988.36-2.834 7.424 5.7 8.168 15.674 1.552 22.062-2.863 2.765-6.056 5.186-9.093 7.77-3.63 3.089-6.815 6.496-8.215 11.238-.112.38-.757.602-1.155.896-.196-.461-.6-.942-.556-1.38.331-3.266 1.704-6.17 4.006-8.4 3.375-3.268 7.036-6.24 10.571-9.342 1.355-1.189 2.7-2.39 4.368-3.867zm-20.32-41.067c-1.638 1.514-3.18 2.933-4.714 4.359-.521.484-1.081 1.255-1.716.332-.214-.312.035-1.204.36-1.582a57.077 57.077 0 0 1 4.003-4.225c1.202-1.136 1.084-2.024-.255-2.975-1.767 1.751-3.516 3.502-5.288 5.229-.505.492-.964 1.501-1.846.58-.808-.844.031-1.374.552-1.92 1.634-1.716 3.27-3.43 4.955-5.197-1.14-1.232-2.059-1.302-3.1-.076a36.415 36.415 0 0 1-3.234 3.35c-.423.385-1.386.817-1.65.62-1.004-.752-.197-1.413.384-2.014l3.208-3.31-.145-.5c-1.889.09-3.777.192-5.667.264-.603.023-1.284.136-1.794-.094-.524-.237-.884-.841-1.544-1.52.875-.23 1.378-.43 1.898-.488 3.585-.394 7.19-.707 10.672.537 5.128 1.831 7.011 6.146 8.01 11 .971 4.714 1.737 9.47 2.703 14.184.667 3.26 2.168 6.134 4.394 8.64.374.42.35 1.196.511 1.808-.576-.144-1.271-.128-1.71-.456-3.585-2.688-5.17-6.58-6.029-10.773-.991-4.835-1.744-9.718-2.612-14.578-.075-.42-.237-.825-.345-1.195zM12.84 25.178c1.577 1.653 3.014 3.174 4.47 4.677.509.525 1.236 1.082.387 1.732-.292.223-1.226-.031-1.613-.364-1.426-1.227-2.808-2.52-4.087-3.9-1.136-1.226-2.087-1.29-3.03.011 1.752 1.84 3.525 3.638 5.208 5.518.375.419.77 1.369.567 1.655-.673.95-1.295.202-1.863-.35-1.738-1.683-3.488-3.355-5.278-5.073-1.147 1.155-1.343 2.057-.062 3.125 1.315 1.097 2.52 2.335 3.693 3.586.276.294.232.89.335 1.345-.532.016-1.302.265-1.554.007-1.231-1.259-2.323-2.653-3.464-3.999l-.744.448c-.043.553-.148 1.11-.118 1.659.084 1.55.17 3.105.356 4.646.164 1.35-.444 2.05-1.787 2.482-.935-3.265-1.027-6.518-.5-9.734 1.208-7.364 6.119-9.401 11.42-10.557 4.742-1.033 9.552-1.75 14.303-2.744 3.244-.679 6.123-2.18 8.634-4.4.43-.38 1.214-.356 1.834-.519-.182.568-.22 1.25-.567 1.683-3.313 4.108-7.783 6.052-12.885 6.765-3.888.543-7.779 1.071-11.662 1.65-.674.101-1.315.424-1.993.651z"/></g></g></svg>