<svg xmlns="http://www.w3.org/2000/svg" width="102" height="102" viewBox="0 0 102 102"><defs><linearGradient id="7nu9a" x1="38.47" x2="63" y1="102" y2="0" gradientUnits="userSpaceOnUse"><stop offset="0" stop-color="#0072ee"/><stop offset="1" stop-color="#00cdff"/></linearGradient></defs><g><g><path fill="#002847" d="M31.877 33.284v35.193h-3.895V33.284zM59.037 50.8H73.67v.844c0 3.904-1.158 8.126-3.369 11.133-1.053 1.425-5 6.332-13.053 6.332-10.422 0-18.212-7.968-18.212-18.204 0-10.235 7.842-18.202 18.317-18.202 3.368 0 7.316.844 10.737 3.482 1.58 1.213 3.053 2.797 4.053 4.168l-2.895 2.638c-1-1.425-2.158-2.69-3.316-3.64-1.684-1.372-4.316-2.955-8.527-2.955-8.474 0-14.369 6.384-14.369 14.562 0 9.603 7.632 14.457 14.264 14.457 4.685 0 8.738-2.374 10.738-5.91.631-1.106 1.316-2.795 1.42-5.012h-10.42z"/></g><g><path fill="#081c27" d="M92.278 30.54c-2.163.613-3.94 1.114-5.717 1.62-.372.105-.772.375-1.104.304-.511-.108-.975-.445-1.46-.685.288-.383.502-.986.875-1.11 1.881-.63 3.797-1.16 5.713-1.675 1.834-.494 1.918-.6 1.397-2.814-1.834.506-3.667 1.005-5.495 1.52-.691.194-1.362.544-2.06.6-.479.039-.99-.306-1.486-.48.277-.44.464-1.146.847-1.279 1.932-.67 3.916-1.186 5.878-1.77.512-.152 1.011-.349 1.57-.543-.416-1.438-.894-2.195-2.493-1.53-1.52.633-3.163.998-4.78 1.342-.518.11-1.128-.223-1.696-.355.398-.498.7-1.255 1.213-1.447 1.54-.576 3.164-.934 5.333-1.539-1.352-.762-2.29-1.329-3.262-1.828-.983-.505-2.063-.846-2.977-1.448-.533-.35-.966-1.02-1.188-1.64-.28-.78.177-1.225.981-.891 3.647 1.515 7.23 3.177 9.816 6.313 2.203 2.67 3.205 5.848 2.288 9.186-1.286 4.68-2.959 9.256-4.525 13.857-1.31 3.853-2.378 7.734-1.917 11.864.079.709.394 1.407.383 2.105-.01.514-.374 1.02-.58 1.53-.366-.327-.9-.582-1.072-.99-2.06-4.895-1.6-9.76.326-14.568 1.399-3.49 2.88-6.947 4.28-10.437.344-.858.514-1.786.912-3.211zM9.408 71.336c2.334-.675 4.238-1.204 6.127-1.783.83-.255 1.748-.592 2.048.506.08.295-.82 1.084-1.397 1.294-1.707.621-3.479 1.063-5.224 1.581-1.81.537-1.837.594-1.264 2.764 2.31-.65 4.62-1.299 6.93-1.954.265-.076.554-.323.77-.264.467.131.894.407 1.337.624-.256.388-.433 1.007-.78 1.125-1.985.681-4.012 1.239-6.02 1.85-.468.142-.922.329-1.365.49.303 1.772.714 2.064 2.274 1.623 1.704-.482 3.385-1.053 5.108-1.449.425-.098.973.339 1.464.529-.333.43-.582 1.09-1.013 1.248-1.64.598-3.34 1.034-5.165 1.985 1.738.857 3.53 1.622 5.191 2.61.768.457 1.294 1.336 1.866 2.073.033.042-.536.801-.788.78-3.901-.321-10.672-5.97-11.957-9.727-1.111-3.25-.546-6.383.465-9.46 1.483-4.515 3.234-8.943 4.694-13.464 1.12-3.463 1.465-7.029.552-10.649-.11-.434.346-1.012.54-1.523.371.314.918.554 1.089.954 2.08 4.89 1.601 9.758-.314 14.564-1.413 3.543-2.924 7.048-4.342 10.59-.339.848-.482 1.774-.825 3.083zm61.76 21.05c-.67-2.348-1.18-4.306-1.803-6.228-.27-.836-.43-1.655.522-1.897.305-.077 1.085.81 1.28 1.38.643 1.878 1.168 3.801 1.639 5.732.29 1.188 1.1 1.396 1.988 1.072.295-.108.511-1.09.387-1.575-.53-2.087-1.259-4.123-1.772-6.213-.11-.454.371-1.054.58-1.587.403.34 1.027.604 1.173 1.032.682 1.991 1.23 4.029 1.833 6.047.121.407.277.804.44 1.267 1.431-.354 2.157-.877 1.57-2.447-.6-1.605-1.031-3.281-1.41-4.955-.103-.457.25-1.018.393-1.532.482.334 1.232.568 1.398 1.02.59 1.594.98 3.264 1.55 5.272.512-.7.914-1.12 1.167-1.618.703-1.379 1.266-2.836 2.044-4.169.35-.597 1.013-1.135 1.656-1.404.8-.334 1.433.069.924.995-1.564 2.851-2.889 5.92-4.908 8.416-3.612 4.464-8.558 4.679-13.646 3.027-4.666-1.514-9.232-3.336-13.895-4.859-3.46-1.13-7.024-1.463-10.643-.605-.458.108-1.034-.28-1.555-.44.303-.435.508-1.078.923-1.272 3.717-1.736 7.578-1.531 11.334-.31 4.78 1.556 9.466 3.398 14.199 5.1.713.256 1.46.419 2.633.751zm-13.07 6.729c2.142-1.443 3.912-2.632 5.677-3.827 1.268-.86 1.495-.834 3.03.589-1.646 1.166-3.129 2.545-4.872 3.37-2.42 1.148-4.976 2.273-7.587 2.676-2.384.368-4.89-.577-6.748-2.234a77.65 77.65 0 0 1-6.854-6.968c-3.27-3.759-6.082-7.96-10.398-10.669-1.346-.844-2.885-1.372-4.293-2.127-.508-.272-.888-.784-1.326-1.187.562-.161 1.152-.526 1.682-.452 4.939.678 8.738 3.342 11.79 7.135 2.328 2.893 4.501 5.91 6.775 8.848.729.943 1.556 1.81 2.338 2.712l.49-.313c.555-2.124 1.064-4.26 1.703-6.358.128-.42.754-.689 1.15-1.027.208.517.67 1.082.582 1.54-.367 1.905-.81 3.806-1.398 5.652-.487 1.527-.106 2.347 1.831 2.625l.88-3.552c.334-1.345.607-2.71 1.038-4.023.148-.453.691-.775 1.054-1.158.26.474.807 1.001.732 1.416-.343 1.903-.869 3.771-1.31 5.658-.143.615-.227 1.245-.354 1.957 1.47.28 2.313.061 2.58-1.434a41.657 41.657 0 0 1 1.231-4.989c.128-.411.784-.659 1.197-.981.22.494.686 1.03.611 1.475-.23 1.362-.677 2.685-1.018 4.03-.089.347-.098.715-.212 1.616zM54.01 4.629c-.695 2.64-1.186 4.724-1.82 6.763-.15.477-.835 1.17-1.188 1.124-.978-.13-.802-.89-.582-1.673.525-1.868.83-3.803 1.436-5.64.56-1.695-.207-2.196-1.84-2.44-.634 2.47-1.227 4.927-1.92 7.354-.15.525-.661.945-1.006 1.414-.27-.625-.847-1.3-.753-1.864.299-1.794.863-3.543 1.292-5.318.15-.619.203-1.26.322-2.032-1.465-.18-2.296.121-2.576 1.541a50.557 50.557 0 0 1-1.23 4.983c-.134.44-.737.736-1.125 1.098-.24-.538-.76-1.126-.673-1.605.3-1.665.811-3.293 1.372-5.432-1.084.574-1.8.888-2.445 1.31a55.832 55.832 0 0 0-3.4 2.378c-1.11.848-1.985.563-3.032-.537C39.179 2.764 43.37-.667 49.144.118c1.967.269 4.156 1.262 5.59 2.618 3.205 3.026 6.044 6.45 8.945 9.787 2.99 3.442 5.941 6.9 10.278 8.734.61.258 1.283.4 1.838.74.445.274.755.77 1.124 1.166-.509.163-1.046.524-1.522.458-4.155-.588-7.71-2.47-10.477-5.582-2.238-2.517-4.148-5.326-6.26-7.96-1.398-1.742-2.896-3.402-4.65-5.45zm-27.897 5.08c.711 2.49 1.364 4.878 2.086 7.245.228.747.512 1.552-.484 1.709-.387.062-1.15-.65-1.327-1.156-.663-1.88-1.104-3.84-1.742-5.731-.16-.473-.882-1.201-1.112-1.123-.777.264-1.4.762-.99 1.884.586 1.613 1 3.292 1.448 4.953.192.708.69 1.695-.472 1.864-.398.057-1.155-.833-1.381-1.43-.56-1.473-.907-3.029-1.34-4.55-.158-.05-.315-.097-.472-.146-.88 1.803-1.802 3.586-2.622 5.416-.574 1.283-1.37 1.926-2.897 1.498.028-.332-.023-.627.084-.845 1.003-2.036 1.869-4.166 3.087-6.067 3.602-5.62 7.87-7.388 14.358-5.651 3.994 1.069 7.848 2.673 11.744 4.092 3.826 1.392 7.71 2.376 11.824 1.975.76-.075 1.505-.396 2.261-.411.471-.01.949.34 1.424.529-.268.398-.446.985-.819 1.165-3.712 1.798-7.59 1.588-11.357.41-4.266-1.334-8.418-3.032-12.628-4.55-1.28-.46-2.587-.843-4.3-1.397L32.1 15.08c.091.32.322.666.26.95-.121.553-.403 1.07-.618 1.603-.404-.34-1.025-.604-1.172-1.033-.629-1.828-1.142-3.7-1.65-5.568-.51-1.875-.544-1.915-2.807-1.323zm10.498 80.257c1.046.598 1.167 1.286.27 2.19-1.161 1.169-2.284 2.375-3.75 3.907 1.165.063 1.897.172 2.62.127a71.14 71.14 0 0 0 4.137-.4c1.347-.162 2.017.512 2.372 1.704-9.133 3.879-18.484-1.202-20.26-10.877-.97-5.274-1.957-10.548-3.121-15.781-.622-2.794-2.152-5.198-4.09-7.334-.327-.359-.31-1.034-.45-1.564.569.094 1.27.006 1.686.309 3.636 2.642 5.225 6.544 6.1 10.732.997 4.775 1.72 9.607 2.576 14.413.092.519.277 1.02.446 1.63 1.66-1.592 3.173-3.027 4.664-4.485.518-.508 1.068-1.274 1.707-.408.23.312-.075 1.295-.434 1.72a44.84 44.84 0 0 1-3.78 3.98c-1.21 1.117-1.367 2.067-.277 2.86 2.05-1.825 4.042-3.631 6.081-5.383.3-.258.977-.477 1.204-.318.297.208.423.81.42 1.241-.002.248-.399.5-.628.739-1.304 1.362-2.614 2.72-3.915 4.085-.373.392-.722.807-1.095 1.226 1.127 1.205 2.027 1.226 3.104.037 1.366-1.508 2.895-2.869 4.413-4.35zM4.845 47.788c2.483.664 4.607 1.186 6.692 1.832.423.13.7.731 1.045 1.116-.524.214-1.1.688-1.564.597-1.898-.375-3.772-.888-5.636-1.417-1.441-.409-2.389-.122-2.596 1.804 1.9.493 3.859 1.001 5.817 1.507.537.14 1.124.18 1.597.437.488.264.865.736 1.291 1.117-.592.245-1.234.773-1.769.68-1.789-.31-3.537-.857-5.307-1.284-.618-.148-1.256-.212-1.938-.324-.445 1.54.107 2.256 1.418 2.556 1.667.382 3.344.74 4.975 1.24.419.13.685.757 1.02 1.155-.488.23-1.027.723-1.458.641-1.712-.32-3.392-.82-5.084-1.254l-.334.392c1.182 1.761 2.312 3.56 3.565 5.27.815 1.113.65 1.99-.489 3.184-1.196-1.685-2.416-3.216-3.436-4.871-4.16-6.752-3.44-12.27 2.295-17.76 1.36-1.3 2.845-2.47 4.266-3.706 2.59-2.254 5.23-4.454 7.745-6.787 2.309-2.143 3.884-4.8 4.948-7.781.19-.53.873-.88 1.33-1.315.154.582.501 1.188.431 1.741-.453 3.566-2.196 6.558-4.75 8.937-3.402 3.167-7.052 6.065-10.578 9.099-1.112.956-2.169 1.977-3.496 3.194zM94.02 72.707c1.28-1.14 1.246-1.983.15-3.03-1.479-1.412-2.801-2.987-4.305-4.615.463-.964 1.165-1.078 2.13-.098 1.14 1.16 2.33 2.271 3.5 3.403l.54-.237c-.134-2.064-.216-4.133-.419-6.19-.132-1.348.441-2.045 1.663-2.405 2.327 8.963.623 17.548-9.425 19.882-3.762.874-7.605 1.398-11.408 2.098-4.767.876-9.39 2.083-13.076 5.552-.349.328-1.031.3-1.559.438.125-.56.081-1.253.401-1.658 3.608-4.57 8.605-6.377 14.167-7.078 3.619-.456 7.226-1.01 10.834-1.55.523-.077 1.022-.313 1.962-.614l-4.145-3.937c-.321-.305-.776-.557-.93-.931-.185-.455-.117-1.015-.158-1.53.476.055 1.106-.067 1.402.194 1.495 1.319 2.897 2.742 4.342 4.118 1.487 1.416 1.493 1.41 3.033-.065-1.752-1.81-3.51-3.62-5.257-5.44-.456-.475-1.381-.851-.602-1.72.804-.896 1.342-.142 1.904.396 1.742 1.673 3.493 3.335 5.256 5.017zm2.852-18.636c-2.491-.644-4.555-1.153-6.601-1.728-.434-.121-.982-.397-1.157-.757-.362-.747.442-1.43 1.363-1.202 1.985.493 3.964 1.01 5.948 1.51 1.822.46 1.823.457 2.462-1.783-2.49-.634-4.988-1.225-7.454-1.933-.487-.14-.846-.726-1.265-1.107.535-.245 1.121-.773 1.595-.686 1.898.347 3.76.894 5.639 1.346.565.136 1.147.203 1.815.318.274-1.535.016-2.364-1.579-2.595-1.631-.237-3.24-.699-4.816-1.196-.434-.137-.719-.75-1.072-1.143.531-.246 1.113-.772 1.585-.687 1.665.297 3.292.804 5.267.907-.519-.851-1.014-1.718-1.562-2.549-.641-.971-1.293-1.94-2.006-2.858-.865-1.115-.578-1.988.36-2.834 7.424 5.7 8.168 15.674 1.552 22.062-2.863 2.765-6.056 5.186-9.093 7.77-3.63 3.089-6.815 6.496-8.215 11.238-.112.38-.757.601-1.155.896-.196-.461-.6-.943-.556-1.38.331-3.266 1.704-6.17 4.006-8.4 3.375-3.269 7.036-6.24 10.571-9.342 1.355-1.19 2.7-2.39 4.368-3.867zm-20.32-41.067c-1.638 1.514-3.18 2.933-4.714 4.358-.521.485-1.081 1.256-1.716.332-.214-.311.035-1.203.36-1.58a57.149 57.149 0 0 1 4.003-4.226c1.202-1.136 1.084-2.024-.255-2.975-1.767 1.75-3.516 3.502-5.288 5.228-.505.493-.964 1.502-1.846.581-.808-.844.031-1.374.552-1.92 1.634-1.716 3.27-3.431 4.955-5.198-1.14-1.232-2.059-1.302-3.1-.075a36.368 36.368 0 0 1-3.234 3.35c-.423.385-1.386.817-1.65.62-1.004-.752-.197-1.413.384-2.014l3.208-3.311-.145-.499c-1.889.09-3.777.192-5.667.264-.603.023-1.284.136-1.794-.094-.524-.237-.884-.842-1.544-1.52.875-.23 1.378-.43 1.898-.488 3.585-.394 7.19-.707 10.672.536 5.128 1.832 7.011 6.147 8.01 11 .971 4.714 1.737 9.47 2.703 14.185.667 3.26 2.168 6.133 4.394 8.64.374.42.35 1.196.511 1.807-.576-.143-1.271-.127-1.71-.455-3.585-2.688-5.17-6.58-6.029-10.773-.991-4.835-1.744-9.718-2.612-14.578-.075-.42-.237-.825-.345-1.195zM12.84 25.178c1.577 1.653 3.014 3.174 4.47 4.677.509.525 1.236 1.082.387 1.732-.292.223-1.226-.032-1.613-.364-1.426-1.228-2.808-2.521-4.087-3.9-1.136-1.226-2.087-1.291-3.03.011 1.752 1.84 3.525 3.637 5.208 5.518.375.418.77 1.369.567 1.655-.673.95-1.295.201-1.863-.35-1.738-1.683-3.488-3.355-5.278-5.073-1.147 1.154-1.343 2.057-.062 3.125 1.315 1.097 2.52 2.335 3.693 3.586.276.294.232.889.335 1.345-.532.016-1.302.265-1.554.007-1.231-1.259-2.323-2.653-3.464-3.999l-.744.448c-.043.553-.148 1.109-.118 1.658.084 1.551.17 3.106.356 4.647.164 1.35-.444 2.05-1.787 2.481-.935-3.264-1.027-6.517-.5-9.733 1.208-7.364 6.119-9.402 11.42-10.557 4.742-1.033 9.552-1.751 14.303-2.744 3.244-.68 6.123-2.181 8.634-4.401.43-.379 1.214-.355 1.834-.518-.182.568-.22 1.25-.567 1.683-3.313 4.108-7.783 6.052-12.885 6.765-3.888.543-7.779 1.07-11.662 1.65-.674.101-1.315.423-1.993.65z"/><path fill="url(#7nu9a)" d="M92.278 30.54c-2.163.613-3.94 1.114-5.717 1.62-.372.105-.772.375-1.104.304-.511-.108-.975-.445-1.46-.685.288-.383.502-.986.875-1.11 1.881-.63 3.797-1.16 5.713-1.675 1.834-.494 1.918-.6 1.397-2.814-1.834.506-3.667 1.005-5.495 1.52-.691.194-1.362.544-2.06.6-.479.039-.99-.306-1.486-.48.277-.44.464-1.146.847-1.279 1.932-.67 3.916-1.186 5.878-1.77.512-.152 1.011-.349 1.57-.543-.416-1.438-.894-2.195-2.493-1.53-1.52.633-3.163.998-4.78 1.342-.518.11-1.128-.223-1.696-.355.398-.498.7-1.255 1.213-1.447 1.54-.576 3.164-.934 5.333-1.539-1.352-.762-2.29-1.329-3.262-1.828-.983-.505-2.063-.846-2.977-1.448-.533-.35-.966-1.02-1.188-1.64-.28-.78.177-1.225.981-.891 3.647 1.515 7.23 3.177 9.816 6.313 2.203 2.67 3.205 5.848 2.288 9.186-1.286 4.68-2.959 9.256-4.525 13.857-1.31 3.853-2.378 7.734-1.917 11.864.079.709.394 1.407.383 2.105-.01.514-.374 1.02-.58 1.53-.366-.327-.9-.582-1.072-.99-2.06-4.895-1.6-9.76.326-14.568 1.399-3.49 2.88-6.947 4.28-10.437.344-.858.514-1.786.912-3.211zM9.408 71.336c2.334-.675 4.238-1.204 6.127-1.783.83-.255 1.748-.592 2.048.506.08.295-.82 1.084-1.397 1.294-1.707.621-3.479 1.063-5.224 1.581-1.81.537-1.837.594-1.264 2.764 2.31-.65 4.62-1.299 6.93-1.954.265-.076.554-.323.77-.264.467.131.894.407 1.337.624-.256.388-.433 1.007-.78 1.125-1.985.681-4.012 1.239-6.02 1.85-.468.142-.922.329-1.365.49.303 1.772.714 2.064 2.274 1.623 1.704-.482 3.385-1.053 5.108-1.449.425-.098.973.339 1.464.529-.333.43-.582 1.09-1.013 1.248-1.64.598-3.34 1.034-5.165 1.985 1.738.857 3.53 1.622 5.191 2.61.768.457 1.294 1.336 1.866 2.073.033.042-.536.801-.788.78-3.901-.321-10.672-5.97-11.957-9.727-1.111-3.25-.546-6.383.465-9.46 1.483-4.515 3.234-8.943 4.694-13.464 1.12-3.463 1.465-7.029.552-10.649-.11-.434.346-1.012.54-1.523.371.314.918.554 1.089.954 2.08 4.89 1.601 9.758-.314 14.564-1.413 3.543-2.924 7.048-4.342 10.59-.339.848-.482 1.774-.825 3.083zm61.76 21.05c-.67-2.348-1.18-4.306-1.803-6.228-.27-.836-.43-1.655.522-1.897.305-.077 1.085.81 1.28 1.38.643 1.878 1.168 3.801 1.639 5.732.29 1.188 1.1 1.396 1.988 1.072.295-.108.511-1.09.387-1.575-.53-2.087-1.259-4.123-1.772-6.213-.11-.454.371-1.054.58-1.587.403.34 1.027.604 1.173 1.032.682 1.991 1.23 4.029 1.833 6.047.121.407.277.804.44 1.267 1.431-.354 2.157-.877 1.57-2.447-.6-1.605-1.031-3.281-1.41-4.955-.103-.457.25-1.018.393-1.532.482.334 1.232.568 1.398 1.02.59 1.594.98 3.264 1.55 5.272.512-.7.914-1.12 1.167-1.618.703-1.379 1.266-2.836 2.044-4.169.35-.597 1.013-1.135 1.656-1.404.8-.334 1.433.069.924.995-1.564 2.851-2.889 5.92-4.908 8.416-3.612 4.464-8.558 4.679-13.646 3.027-4.666-1.514-9.232-3.336-13.895-4.859-3.46-1.13-7.024-1.463-10.643-.605-.458.108-1.034-.28-1.555-.44.303-.435.508-1.078.923-1.272 3.717-1.736 7.578-1.531 11.334-.31 4.78 1.556 9.466 3.398 14.199 5.1.713.256 1.46.419 2.633.751zm-13.07 6.729c2.142-1.443 3.912-2.632 5.677-3.827 1.268-.86 1.495-.834 3.03.589-1.646 1.166-3.129 2.545-4.872 3.37-2.42 1.148-4.976 2.273-7.587 2.676-2.384.368-4.89-.577-6.748-2.234a77.65 77.65 0 0 1-6.854-6.968c-3.27-3.759-6.082-7.96-10.398-10.669-1.346-.844-2.885-1.372-4.293-2.127-.508-.272-.888-.784-1.326-1.187.562-.161 1.152-.526 1.682-.452 4.939.678 8.738 3.342 11.79 7.135 2.328 2.893 4.501 5.91 6.775 8.848.729.943 1.556 1.81 2.338 2.712l.49-.313c.555-2.124 1.064-4.26 1.703-6.358.128-.42.754-.689 1.15-1.027.208.517.67 1.082.582 1.54-.367 1.905-.81 3.806-1.398 5.652-.487 1.527-.106 2.347 1.831 2.625l.88-3.552c.334-1.345.607-2.71 1.038-4.023.148-.453.691-.775 1.054-1.158.26.474.807 1.001.732 1.416-.343 1.903-.869 3.771-1.31 5.658-.143.615-.227 1.245-.354 1.957 1.47.28 2.313.061 2.58-1.434a41.657 41.657 0 0 1 1.231-4.989c.128-.411.784-.659 1.197-.981.22.494.686 1.03.611 1.475-.23 1.362-.677 2.685-1.018 4.03-.089.347-.098.715-.212 1.616zM54.01 4.629c-.695 2.64-1.186 4.724-1.82 6.763-.15.477-.835 1.17-1.188 1.124-.978-.13-.802-.89-.582-1.673.525-1.868.83-3.803 1.436-5.64.56-1.695-.207-2.196-1.84-2.44-.634 2.47-1.227 4.927-1.92 7.354-.15.525-.661.945-1.006 1.414-.27-.625-.847-1.3-.753-1.864.299-1.794.863-3.543 1.292-5.318.15-.619.203-1.26.322-2.032-1.465-.18-2.296.121-2.576 1.541a50.557 50.557 0 0 1-1.23 4.983c-.134.44-.737.736-1.125 1.098-.24-.538-.76-1.126-.673-1.605.3-1.665.811-3.293 1.372-5.432-1.084.574-1.8.888-2.445 1.31a55.832 55.832 0 0 0-3.4 2.378c-1.11.848-1.985.563-3.032-.537C39.179 2.764 43.37-.667 49.144.118c1.967.269 4.156 1.262 5.59 2.618 3.205 3.026 6.044 6.45 8.945 9.787 2.99 3.442 5.941 6.9 10.278 8.734.61.258 1.283.4 1.838.74.445.274.755.77 1.124 1.166-.509.163-1.046.524-1.522.458-4.155-.588-7.71-2.47-10.477-5.582-2.238-2.517-4.148-5.326-6.26-7.96-1.398-1.742-2.896-3.402-4.65-5.45zm-27.897 5.08c.711 2.49 1.364 4.878 2.086 7.245.228.747.512 1.552-.484 1.709-.387.062-1.15-.65-1.327-1.156-.663-1.88-1.104-3.84-1.742-5.731-.16-.473-.882-1.201-1.112-1.123-.777.264-1.4.762-.99 1.884.586 1.613 1 3.292 1.448 4.953.192.708.69 1.695-.472 1.864-.398.057-1.155-.833-1.381-1.43-.56-1.473-.907-3.029-1.34-4.55-.158-.05-.315-.097-.472-.146-.88 1.803-1.802 3.586-2.622 5.416-.574 1.283-1.37 1.926-2.897 1.498.028-.332-.023-.627.084-.845 1.003-2.036 1.869-4.166 3.087-6.067 3.602-5.62 7.87-7.388 14.358-5.651 3.994 1.069 7.848 2.673 11.744 4.092 3.826 1.392 7.71 2.376 11.824 1.975.76-.075 1.505-.396 2.261-.411.471-.01.949.34 1.424.529-.268.398-.446.985-.819 1.165-3.712 1.798-7.59 1.588-11.357.41-4.266-1.334-8.418-3.032-12.628-4.55-1.28-.46-2.587-.843-4.3-1.397L32.1 15.08c.091.32.322.666.26.95-.121.553-.403 1.07-.618 1.603-.404-.34-1.025-.604-1.172-1.033-.629-1.828-1.142-3.7-1.65-5.568-.51-1.875-.544-1.915-2.807-1.323zm10.498 80.257c1.046.598 1.167 1.286.27 2.19-1.161 1.169-2.284 2.375-3.75 3.907 1.165.063 1.897.172 2.62.127a71.14 71.14 0 0 0 4.137-.4c1.347-.162 2.017.512 2.372 1.704-9.133 3.879-18.484-1.202-20.26-10.877-.97-5.274-1.957-10.548-3.121-15.781-.622-2.794-2.152-5.198-4.09-7.334-.327-.359-.31-1.034-.45-1.564.569.094 1.27.006 1.686.309 3.636 2.642 5.225 6.544 6.1 10.732.997 4.775 1.72 9.607 2.576 14.413.092.519.277 1.02.446 1.63 1.66-1.592 3.173-3.027 4.664-4.485.518-.508 1.068-1.274 1.707-.408.23.312-.075 1.295-.434 1.72a44.84 44.84 0 0 1-3.78 3.98c-1.21 1.117-1.367 2.067-.277 2.86 2.05-1.825 4.042-3.631 6.081-5.383.3-.258.977-.477 1.204-.318.297.208.423.81.42 1.241-.002.248-.399.5-.628.739-1.304 1.362-2.614 2.72-3.915 4.085-.373.392-.722.807-1.095 1.226 1.127 1.205 2.027 1.226 3.104.037 1.366-1.508 2.895-2.869 4.413-4.35zM4.845 47.788c2.483.664 4.607 1.186 6.692 1.832.423.13.7.731 1.045 1.116-.524.214-1.1.688-1.564.597-1.898-.375-3.772-.888-5.636-1.417-1.441-.409-2.389-.122-2.596 1.804 1.9.493 3.859 1.001 5.817 1.507.537.14 1.124.18 1.597.437.488.264.865.736 1.291 1.117-.592.245-1.234.773-1.769.68-1.789-.31-3.537-.857-5.307-1.284-.618-.148-1.256-.212-1.938-.324-.445 1.54.107 2.256 1.418 2.556 1.667.382 3.344.74 4.975 1.24.419.13.685.757 1.02 1.155-.488.23-1.027.723-1.458.641-1.712-.32-3.392-.82-5.084-1.254l-.334.392c1.182 1.761 2.312 3.56 3.565 5.27.815 1.113.65 1.99-.489 3.184-1.196-1.685-2.416-3.216-3.436-4.871-4.16-6.752-3.44-12.27 2.295-17.76 1.36-1.3 2.845-2.47 4.266-3.706 2.59-2.254 5.23-4.454 7.745-6.787 2.309-2.143 3.884-4.8 4.948-7.781.19-.53.873-.88 1.33-1.315.154.582.501 1.188.431 1.741-.453 3.566-2.196 6.558-4.75 8.937-3.402 3.167-7.052 6.065-10.578 9.099-1.112.956-2.169 1.977-3.496 3.194zM94.02 72.707c1.28-1.14 1.246-1.983.15-3.03-1.479-1.412-2.801-2.987-4.305-4.615.463-.964 1.165-1.078 2.13-.098 1.14 1.16 2.33 2.271 3.5 3.403l.54-.237c-.134-2.064-.216-4.133-.419-6.19-.132-1.348.441-2.045 1.663-2.405 2.327 8.963.623 17.548-9.425 19.882-3.762.874-7.605 1.398-11.408 2.098-4.767.876-9.39 2.083-13.076 5.552-.349.328-1.031.3-1.559.438.125-.56.081-1.253.401-1.658 3.608-4.57 8.605-6.377 14.167-7.078 3.619-.456 7.226-1.01 10.834-1.55.523-.077 1.022-.313 1.962-.614l-4.145-3.937c-.321-.305-.776-.557-.93-.931-.185-.455-.117-1.015-.158-1.53.476.055 1.106-.067 1.402.194 1.495 1.319 2.897 2.742 4.342 4.118 1.487 1.416 1.493 1.41 3.033-.065-1.752-1.81-3.51-3.62-5.257-5.44-.456-.475-1.381-.851-.602-1.72.804-.896 1.342-.142 1.904.396 1.742 1.673 3.493 3.335 5.256 5.017zm2.852-18.636c-2.491-.644-4.555-1.153-6.601-1.728-.434-.121-.982-.397-1.157-.757-.362-.747.442-1.43 1.363-1.202 1.985.493 3.964 1.01 5.948 1.51 1.822.46 1.823.457 2.462-1.783-2.49-.634-4.988-1.225-7.454-1.933-.487-.14-.846-.726-1.265-1.107.535-.245 1.121-.773 1.595-.686 1.898.347 3.76.894 5.639 1.346.565.136 1.147.203 1.815.318.274-1.535.016-2.364-1.579-2.595-1.631-.237-3.24-.699-4.816-1.196-.434-.137-.719-.75-1.072-1.143.531-.246 1.113-.772 1.585-.687 1.665.297 3.292.804 5.267.907-.519-.851-1.014-1.718-1.562-2.549-.641-.971-1.293-1.94-2.006-2.858-.865-1.115-.578-1.988.36-2.834 7.424 5.7 8.168 15.674 1.552 22.062-2.863 2.765-6.056 5.186-9.093 7.77-3.63 3.089-6.815 6.496-8.215 11.238-.112.38-.757.601-1.155.896-.196-.461-.6-.943-.556-1.38.331-3.266 1.704-6.17 4.006-8.4 3.375-3.269 7.036-6.24 10.571-9.342 1.355-1.19 2.7-2.39 4.368-3.867zm-20.32-41.067c-1.638 1.514-3.18 2.933-4.714 4.358-.521.485-1.081 1.256-1.716.332-.214-.311.035-1.203.36-1.58a57.149 57.149 0 0 1 4.003-4.226c1.202-1.136 1.084-2.024-.255-2.975-1.767 1.75-3.516 3.502-5.288 5.228-.505.493-.964 1.502-1.846.581-.808-.844.031-1.374.552-1.92 1.634-1.716 3.27-3.431 4.955-5.198-1.14-1.232-2.059-1.302-3.1-.075a36.368 36.368 0 0 1-3.234 3.35c-.423.385-1.386.817-1.65.62-1.004-.752-.197-1.413.384-2.014l3.208-3.311-.145-.499c-1.889.09-3.777.192-5.667.264-.603.023-1.284.136-1.794-.094-.524-.237-.884-.842-1.544-1.52.875-.23 1.378-.43 1.898-.488 3.585-.394 7.19-.707 10.672.536 5.128 1.832 7.011 6.147 8.01 11 .971 4.714 1.737 9.47 2.703 14.185.667 3.26 2.168 6.133 4.394 8.64.374.42.35 1.196.511 1.807-.576-.143-1.271-.127-1.71-.455-3.585-2.688-5.17-6.58-6.029-10.773-.991-4.835-1.744-9.718-2.612-14.578-.075-.42-.237-.825-.345-1.195zM12.84 25.178c1.577 1.653 3.014 3.174 4.47 4.677.509.525 1.236 1.082.387 1.732-.292.223-1.226-.032-1.613-.364-1.426-1.228-2.808-2.521-4.087-3.9-1.136-1.226-2.087-1.291-3.03.011 1.752 1.84 3.525 3.637 5.208 5.518.375.418.77 1.369.567 1.655-.673.95-1.295.201-1.863-.35-1.738-1.683-3.488-3.355-5.278-5.073-1.147 1.154-1.343 2.057-.062 3.125 1.315 1.097 2.52 2.335 3.693 3.586.276.294.232.889.335 1.345-.532.016-1.302.265-1.554.007-1.231-1.259-2.323-2.653-3.464-3.999l-.744.448c-.043.553-.148 1.109-.118 1.658.084 1.551.17 3.106.356 4.647.164 1.35-.444 2.05-1.787 2.481-.935-3.264-1.027-6.517-.5-9.733 1.208-7.364 6.119-9.402 11.42-10.557 4.742-1.033 9.552-1.751 14.303-2.744 3.244-.68 6.123-2.181 8.634-4.401.43-.379 1.214-.355 1.834-.518-.182.568-.22 1.25-.567 1.683-3.313 4.108-7.783 6.052-12.885 6.765-3.888.543-7.779 1.07-11.662 1.65-.674.101-1.315.423-1.993.65z"/></g></g></svg>